<svg width="70" height="70" viewBox="0 0 70 70" fill="none" xmlns="http://www.w3.org/2000/svg">
<g clip-path="url(#clip0_1_156)">
<path d="M55.348 12.9526C54.411 12.9526 53.6486 13.7151 53.6486 14.652C53.6486 15.589 54.411 16.3514 55.348 16.3514C56.285 16.3514 57.0474 15.5891 57.0474 14.652C57.0474 13.7149 56.285 12.9526 55.348 12.9526Z" fill="white"/>
<path d="M35 19.9341C26.6927 19.9341 19.9341 26.6927 19.9341 35C19.9341 43.3073 26.6927 50.066 35 50.066C43.3074 50.066 50.066 43.3074 50.066 35.0001C50.066 26.6928 43.3074 19.9341 35 19.9341Z" fill="white"/>
<path d="M50.8106 0H19.1894C8.60836 0 0 8.60836 0 19.1896V50.8106C0 61.3918 8.60836 70 19.1894 70H50.8106C61.3918 70 70 61.3916 70 50.8106V19.1896C70 8.60836 61.3918 0 50.8106 0ZM35 54.1997C24.4132 54.1997 15.8004 45.5868 15.8004 35C15.8004 24.4132 24.4133 15.8006 35 15.8006C45.5867 15.8006 54.1997 24.4133 54.1997 35C54.1997 45.5867 45.5867 54.1997 35 54.1997ZM55.348 20.4854C52.1315 20.4854 49.5147 17.8686 49.5147 14.6521C49.5147 11.4357 52.1315 8.81877 55.348 8.81877C58.5644 8.81877 61.1812 11.4356 61.1812 14.652C61.1812 17.8685 58.5644 20.4854 55.348 20.4854Z" fill="white"/>
</g>
<defs>
<clipPath id="clip0_1_156">
<rect width="70" height="70" fill="white"/>
</clipPath>
</defs>
</svg>
