<svg width="35" height="35" viewBox="0 0 35 35" fill="none" xmlns="http://www.w3.org/2000/svg">
<g clip-path="url(#clip0_64_539)">
<path d="M27.674 6.47607C27.2055 6.47607 26.8243 6.85731 26.8243 7.32578C26.8243 7.79425 27.2055 8.17549 27.674 8.17549C28.1425 8.17549 28.5237 7.79432 28.5237 7.32578C28.5237 6.85725 28.1425 6.47607 27.674 6.47607Z" fill="black"/>
<path d="M17.5 9.96729C13.3463 9.96729 9.96704 13.3466 9.96704 17.5002C9.96704 21.6539 13.3463 25.0332 17.5 25.0332C21.6537 25.0332 25.033 21.6539 25.033 17.5003C25.033 13.3466 21.6537 9.96729 17.5 9.96729Z" fill="black"/>
<path d="M25.4053 0H9.59472C4.30418 0 0 4.30418 0 9.59479V25.4053C0 30.6959 4.30418 35 9.59472 35H25.4053C30.6959 35 35 30.6958 35 25.4053V9.59479C35 4.30418 30.6959 0 25.4053 0ZM17.5 27.0998C12.2066 27.0998 7.90022 22.7934 7.90022 17.5C7.90022 12.2066 12.2067 7.90029 17.5 7.90029C22.7933 7.90029 27.0998 12.2067 27.0998 17.5C27.0998 22.7933 22.7933 27.0998 17.5 27.0998ZM27.674 10.2427C26.0658 10.2427 24.7574 8.9343 24.7574 7.32607C24.7574 5.71785 26.0658 4.40938 27.674 4.40938C29.2822 4.40938 30.5906 5.71778 30.5906 7.32601C30.5906 8.93423 29.2822 10.2427 27.674 10.2427Z" fill="black"/>
</g>
<defs>
<clipPath id="clip0_64_539">
<rect width="35" height="35" fill="white"/>
</clipPath>
</defs>
</svg>
