<svg width="35" height="35" viewBox="0 0 35 35" fill="none" xmlns="http://www.w3.org/2000/svg">
<g clip-path="url(#clip0_64_533)">
<path d="M30.2273 0H4.77273C3.50692 0 2.29296 0.502839 1.3979 1.3979C0.502839 2.29296 0 3.50692 0 4.77273L0 30.2273C0 31.4931 0.502839 32.707 1.3979 33.6021C2.29296 34.4972 3.50692 35 4.77273 35H30.2273C31.4931 35 32.707 34.4972 33.6021 33.6021C34.4972 32.707 35 31.4931 35 30.2273V4.77273C35 3.50692 34.4972 2.29296 33.6021 1.3979C32.707 0.502839 31.4931 0 30.2273 0ZM11.9318 27.6977C11.9321 27.7948 11.9132 27.8909 11.8762 27.9807C11.8393 28.0704 11.785 28.152 11.7164 28.2207C11.6479 28.2894 11.5665 28.344 11.4768 28.3812C11.3872 28.4184 11.2911 28.4375 11.194 28.4375H8.05C7.95278 28.4378 7.85646 28.4188 7.76659 28.3817C7.67672 28.3446 7.59506 28.2902 7.52632 28.2214C7.45757 28.1527 7.40309 28.071 7.366 27.9811C7.32892 27.8913 7.30996 27.795 7.31023 27.6977V14.517C7.31023 14.3208 7.38817 14.1327 7.5269 13.9939C7.66564 13.8552 7.8538 13.7773 8.05 13.7773H11.194C11.3899 13.7778 11.5775 13.856 11.7158 13.9946C11.8542 14.1333 11.9318 14.3212 11.9318 14.517V27.6977ZM9.62102 12.5284C9.03105 12.5284 8.45433 12.3535 7.96378 12.0257C7.47324 11.6979 7.09091 11.232 6.86513 10.687C6.63936 10.1419 6.58029 9.54215 6.69538 8.96351C6.81048 8.38487 7.09458 7.85336 7.51176 7.43619C7.92893 7.01901 8.46044 6.73491 9.03908 6.61982C9.61771 6.50472 10.2175 6.56379 10.7626 6.78956C11.3076 7.01534 11.7735 7.39767 12.1013 7.88821C12.429 8.37876 12.604 8.95548 12.604 9.54545C12.604 10.3366 12.2897 11.0953 11.7303 11.6547C11.1709 12.2141 10.4122 12.5284 9.62102 12.5284ZM28.3659 27.7494C28.3662 27.8388 28.3488 27.9274 28.3147 28.01C28.2806 28.0926 28.2305 28.1677 28.1673 28.2309C28.1041 28.2941 28.029 28.3442 27.9464 28.3783C27.8637 28.4124 27.7752 28.4298 27.6858 28.4295H24.3051C24.2157 28.4298 24.1272 28.4124 24.0445 28.3783C23.9619 28.3442 23.8868 28.2941 23.8236 28.2309C23.7604 28.1677 23.7103 28.0926 23.6762 28.01C23.6421 27.9274 23.6247 27.8388 23.625 27.7494V21.5747C23.625 20.652 23.8955 17.5338 21.2128 17.5338C19.1347 17.5338 18.7111 19.6676 18.6276 20.6261V27.7574C18.6276 27.9361 18.5573 28.1076 18.4319 28.2348C18.3065 28.3621 18.136 28.4349 17.9574 28.4375H14.692C14.6028 28.4375 14.5145 28.4199 14.4321 28.3857C14.3497 28.3515 14.2748 28.3014 14.2118 28.2382C14.1488 28.175 14.0989 28.1 14.065 28.0175C14.031 27.935 14.0137 27.8466 14.0139 27.7574V14.4594C14.0137 14.3702 14.031 14.2818 14.065 14.1993C14.0989 14.1168 14.1488 14.0418 14.2118 13.9786C14.2748 13.9154 14.3497 13.8653 14.4321 13.8311C14.5145 13.7969 14.6028 13.7793 14.692 13.7793H17.9574C18.1378 13.7793 18.3108 13.8509 18.4383 13.9785C18.5658 14.106 18.6375 14.279 18.6375 14.4594V15.6088C19.4091 14.4494 20.5526 13.5585 22.9926 13.5585C28.3977 13.5585 28.3619 18.6057 28.3619 21.3778L28.3659 27.7494Z" fill="black"/>
</g>
<defs>
<clipPath id="clip0_64_533">
<rect width="35" height="35" fill="white"/>
</clipPath>
</defs>
</svg>
