<svg width="251" height="71" viewBox="0 0 251 71" fill="none" xmlns="http://www.w3.org/2000/svg">
<path d="M249.954 63.884C249.954 64.8191 249.769 65.745 249.41 66.6089C249.051 67.4727 248.525 68.2575 247.862 68.9184C247.199 69.5793 246.412 70.1033 245.545 70.4605C244.679 70.8177 243.751 71.001 242.813 71H9.14946C7.25561 71.002 5.4385 70.2534 4.09777 68.919C2.75704 67.5845 2.00247 65.7734 2 63.884V7.13561C2.00247 5.24532 2.75674 3.43326 4.09721 2.09732C5.43767 0.761371 7.25475 0.0107446 9.14946 0.0102539H242.812C243.749 0.0102539 244.678 0.19457 245.544 0.552676C246.411 0.910782 247.198 1.43566 247.861 2.09734C248.524 2.75901 249.05 3.54452 249.409 4.409C249.767 5.27348 249.952 6.19999 249.952 7.13561L249.954 63.884Z" fill="white"/>
<path d="M251 63.7508C251 64.6841 250.813 65.6083 250.45 66.4705C250.086 67.3327 249.554 68.116 248.883 68.7756C248.211 69.4352 247.414 69.9582 246.538 70.3147C245.661 70.6712 244.721 70.8542 243.772 70.8532H7.2373C5.32018 70.8552 3.48075 70.1081 2.12355 68.7761C0.766342 67.4442 0.00249847 65.6366 0 63.7508V7.11165C0.00249732 5.22499 0.766039 3.41642 2.12297 2.08305C3.4799 0.749672 5.31931 0.000489718 7.2373 0H243.77C244.72 -3.17638e-08 245.66 0.183962 246.537 0.541379C247.414 0.898795 248.211 1.42267 248.882 2.08307C249.553 2.74347 250.085 3.52747 250.448 4.39028C250.812 5.2531 250.998 6.17782 250.998 7.11165L251 63.7508Z" fill="black"/>
<path d="M56.4507 35.1154C56.3967 29.1272 61.3653 26.2139 61.5925 26.0782C58.7786 21.9851 54.417 21.4258 52.8843 21.3812C49.2211 20.9966 45.6678 23.5681 43.8018 23.5681C41.8985 23.5681 39.0249 21.4184 35.9278 21.4816C31.9425 21.5429 28.2141 23.8449 26.1693 27.4197C21.9492 34.7085 25.0966 45.4198 29.1397 51.3115C31.1622 54.1988 33.5254 57.4187 36.6188 57.3053C39.645 57.1827 40.7755 55.3823 44.4275 55.3823C48.046 55.3823 49.1075 57.3053 52.2623 57.2329C55.5102 57.1827 57.555 54.3344 59.5067 51.423C61.8439 48.1176 62.7826 44.8587 62.8198 44.6915C62.7453 44.6655 56.514 42.291 56.4507 35.1154ZM50.4912 17.5055C52.1189 15.4747 53.2326 12.7119 52.9234 9.9082C50.5676 10.0123 47.6214 11.5339 45.9248 13.5201C44.4238 15.2703 43.0829 18.1391 43.4293 20.8369C46.0756 21.0338 48.7928 19.5047 50.4912 17.5055Z" fill="white"/>
<path d="M100.284 56.8904H96.055L93.7382 49.6275H85.6855L83.4787 56.8904H79.3611L87.3411 32.1644H92.2689L100.284 56.8904ZM93.0399 46.5804L90.9447 40.124C90.7231 39.4644 90.306 37.9111 89.6951 35.466H89.6206C89.3748 36.5176 88.9819 38.0709 88.4436 40.124L86.3839 46.5804H93.0399ZM120.766 47.7565C120.766 50.7888 119.941 53.1856 118.289 54.9451C116.811 56.5114 114.972 57.2936 112.781 57.2936C110.413 57.2936 108.711 56.4519 107.678 54.7649V64.1198H103.707V44.9213C103.707 43.0168 103.657 41.0641 103.56 39.0612H107.052L107.274 41.8872H107.348C108.672 39.7579 110.682 38.6933 113.378 38.6933C115.486 38.6933 117.246 39.5238 118.654 41.1867C120.06 42.8533 120.766 45.042 120.766 47.7565ZM116.721 47.9015C116.721 46.1661 116.33 44.7355 115.544 43.6077C114.686 42.4353 113.533 41.8482 112.088 41.8482C111.108 41.8482 110.218 42.1752 109.423 42.8199C108.626 43.4702 108.104 44.3193 107.86 45.3709C107.751 45.7642 107.689 46.1689 107.676 46.5767V49.5514C107.676 50.8464 108.074 51.9407 108.871 52.8363C109.669 53.7281 110.704 54.1759 111.978 54.1759C113.473 54.1759 114.637 53.598 115.47 52.4517C116.304 51.3016 116.721 49.7855 116.721 47.9015ZM141.321 47.7565C141.321 50.7888 140.496 53.1856 138.844 54.9451C137.363 56.5114 135.527 57.2936 133.333 57.2936C130.966 57.2936 129.264 56.4519 128.23 54.7649V64.1198H124.26V44.9213C124.26 43.0168 124.21 41.0641 124.113 39.0612H127.605L127.826 41.8872H127.901C129.223 39.7579 131.232 38.6933 133.931 38.6933C136.037 38.6933 137.797 39.5238 139.209 41.1867C140.613 42.8533 141.321 45.042 141.321 47.7565ZM137.274 47.9015C137.274 46.1661 136.881 44.7355 136.095 43.6077C135.236 42.4353 134.087 41.8482 132.642 41.8482C131.663 41.8482 130.772 42.1752 129.973 42.8199C129.176 43.4702 128.657 44.3193 128.413 45.3709C128.292 45.8614 128.227 46.2609 128.227 46.5767V49.5514C128.227 50.8464 128.627 51.9407 129.42 52.8363C130.217 53.7262 131.253 54.1759 132.53 54.1759C134.028 54.1759 135.192 53.598 136.022 52.4517C136.857 51.3016 137.274 49.7855 137.274 47.9015ZM164.302 49.9545C164.302 52.0596 163.564 53.7708 162.099 55.0919C160.486 56.5337 158.234 57.2564 155.348 57.2564C152.681 57.2564 150.543 56.7436 148.93 55.7161L149.848 52.4145C151.589 53.4438 153.502 53.9566 155.584 53.9566C157.081 53.9566 158.245 53.6185 159.076 52.9477C159.908 52.2752 160.329 51.3759 160.329 50.2537C160.329 49.2485 159.981 48.4068 159.298 47.7212C158.61 47.0375 157.474 46.4002 155.878 45.815C151.539 44.2004 149.368 41.8389 149.368 38.7323C149.368 36.7034 150.135 35.0424 151.666 33.7436C153.197 32.4468 155.227 31.7983 157.752 31.7983C160.007 31.7983 161.886 32.1904 163.378 32.9726L162.382 36.2018C160.977 35.4437 159.393 35.0647 157.62 35.0647C156.219 35.0647 155.12 35.4084 154.335 36.0921C153.673 36.7034 153.338 37.4485 153.338 38.3329C153.338 39.3083 153.72 40.1184 154.48 40.7538C155.139 41.3391 156.342 41.9764 158.082 42.6601C160.216 43.5185 161.784 44.5181 162.788 45.6663C163.799 46.8145 164.302 48.2471 164.302 49.9545ZM177.463 42.034H173.086V50.6903C173.086 52.892 173.857 53.9901 175.403 53.9901C176.113 53.9901 176.701 53.9306 177.167 53.8061L177.277 56.8142C176.494 57.1059 175.464 57.2527 174.189 57.2527C172.621 57.2527 171.395 56.7752 170.511 55.8202C169.63 54.8652 169.187 53.2655 169.187 51.0136V42.0265H166.579V39.0538H169.187V35.7893L173.086 34.615V39.0538H177.463V42.034ZM197.17 47.829C197.17 50.5695 196.384 52.8195 194.816 54.5791C193.175 56.3906 190.993 57.2936 188.272 57.2936C185.646 57.2936 183.558 56.4259 182.001 54.6924C180.444 52.9552 179.666 50.7665 179.666 48.1263C179.666 45.3635 180.47 43.1004 182.074 41.3409C183.681 39.5796 185.845 38.6989 188.566 38.6989C191.188 38.6989 193.294 39.5684 194.889 41.3038C196.412 42.9871 197.17 45.1609 197.17 47.829ZM193.054 47.92C193.054 46.2869 192.7 44.886 191.991 43.7136C191.158 42.2978 189.966 41.5899 188.423 41.5899C186.832 41.5899 185.612 42.2978 184.782 43.7136C184.07 44.886 183.716 46.311 183.716 47.9944C183.716 49.6294 184.07 51.034 184.782 52.2027C185.64 53.6185 186.838 54.3264 188.389 54.3264C189.907 54.3264 191.097 53.6036 191.957 52.1674C192.687 50.9671 193.054 49.5569 193.054 47.92ZM210.081 42.5449C209.668 42.4705 209.25 42.4338 208.83 42.4353C207.433 42.4353 206.353 42.9592 205.593 44.0146C204.934 44.9436 204.602 46.1178 204.602 47.5354V56.8904H200.632V44.676C200.635 42.8044 200.597 40.9329 200.516 39.063H203.975L204.12 42.4743H204.23C204.651 41.3019 205.31 40.3562 206.215 39.6483C207.044 39.0298 208.05 38.6948 209.085 38.6933C209.452 38.6933 209.783 38.7193 210.078 38.7658L210.081 42.5449ZM227.839 47.1323C227.849 47.7344 227.8 48.3362 227.693 48.9289H215.782C215.827 50.6903 216.404 52.0392 217.51 52.9682C218.514 53.7968 219.812 54.213 221.406 54.213C223.17 54.213 224.779 53.9343 226.226 53.3714L226.848 56.1193C225.157 56.8551 223.16 57.2211 220.857 57.2211C218.086 57.2211 215.91 56.4073 214.327 54.7834C212.748 53.1577 211.957 50.9727 211.957 48.2359C211.957 45.5493 212.692 43.3104 214.165 41.5249C215.707 39.6186 217.791 38.6654 220.414 38.6654C222.989 38.6654 224.939 39.6186 226.263 41.5249C227.312 43.0354 227.839 44.9083 227.839 47.1323ZM224.053 46.1048C224.08 44.9287 223.82 43.9161 223.282 43.0596C222.594 41.9559 221.537 41.406 220.119 41.406C218.821 41.406 217.763 41.9429 216.959 43.0205C216.298 43.8771 215.905 44.9064 215.784 46.1011L224.053 46.1048Z" fill="white"/>
<path d="M84.5402 23.4229C83.4358 23.4229 82.4805 23.369 81.6852 23.278V11.3237C82.7974 11.1523 83.9214 11.0678 85.0467 11.071C89.6001 11.071 91.6971 13.3062 91.6971 16.9497C91.6971 21.1525 89.2202 23.4229 84.5402 23.4229ZM85.2069 12.6039C84.5923 12.6039 84.069 12.641 83.6351 12.7302V21.8176C83.8697 21.8548 84.3204 21.8715 84.9536 21.8715C87.9371 21.8715 89.6355 20.177 89.6355 17.0036C89.6355 14.1739 88.0991 12.6039 85.2069 12.6039ZM98.232 23.5139C95.6657 23.5139 94.0027 21.6021 94.0027 19.0065C94.0027 16.3013 95.7011 14.3727 98.3773 14.3727C100.906 14.3727 102.607 16.1935 102.607 18.8634C102.607 21.6021 100.854 23.5139 98.232 23.5139ZM98.3065 15.7959C96.8967 15.7959 95.9935 17.1113 95.9935 18.9507C95.9935 20.7548 96.9153 22.0703 98.2879 22.0703C99.6604 22.0703 100.582 20.6638 100.582 18.9136C100.582 17.1299 99.679 15.7959 98.3065 15.7959ZM117.241 14.5529L114.494 23.3151H112.704L111.566 19.51C111.283 18.5792 111.048 17.6348 110.86 16.6803H110.823C110.68 17.6353 110.408 18.5922 110.119 19.51L108.909 23.3151H107.1L104.515 14.5529H106.521L107.516 18.7185C107.75 19.7107 107.948 20.6471 108.112 21.5315H108.149C108.292 20.7939 108.527 19.8723 108.871 18.7371L110.119 14.5548H111.71L112.903 18.6479C113.192 19.6401 113.427 20.6136 113.609 21.5333H113.661C113.788 20.6322 113.987 19.6754 114.257 18.6479L115.324 14.5548L117.241 14.5529ZM127.353 23.3151H125.401V18.2837C125.401 16.7342 124.805 15.9575 123.63 15.9575C122.474 15.9575 121.679 16.9497 121.679 18.1035V23.3151H119.727V17.0575C119.727 16.2827 119.708 15.4522 119.654 14.551H121.371L121.463 15.9037H121.517C122.042 14.9672 123.107 14.3727 124.301 14.3727C126.145 14.3727 127.355 15.7792 127.355 18.0682L127.353 23.3151ZM132.735 23.3151H130.782V10.5322H132.735V23.3151ZM139.851 23.5139C137.287 23.5139 135.622 21.6021 135.622 19.0065C135.622 16.3013 137.32 14.3727 139.995 14.3727C142.526 14.3727 144.224 16.1935 144.224 18.8634C144.226 21.6021 142.472 23.5139 139.851 23.5139ZM139.924 15.7959C138.514 15.7959 137.611 17.1113 137.611 18.9507C137.611 20.7548 138.535 22.0703 139.903 22.0703C141.278 22.0703 142.198 20.6638 142.198 18.9136C142.2 17.1299 141.298 15.7959 139.924 15.7959ZM151.919 23.3151L151.778 22.3063H151.725C151.129 23.1182 150.26 23.5139 149.157 23.5139C147.584 23.5139 146.466 22.414 146.466 20.9351C146.466 18.7724 148.345 17.6539 151.599 17.6539V17.4922C151.599 16.3384 150.986 15.7606 149.776 15.7606C148.91 15.7606 148.15 15.978 147.481 16.4109L147.084 15.1307C147.896 14.6254 148.91 14.3727 150.1 14.3727C152.394 14.3727 153.552 15.5804 153.552 17.9976V21.2249C153.552 22.1093 153.591 22.7949 153.679 23.317L151.919 23.3151ZM151.651 18.9507C149.483 18.9507 148.396 19.4747 148.396 20.7177C148.396 21.6374 148.956 22.087 149.735 22.087C150.727 22.087 151.651 21.3308 151.651 20.3034V18.9507ZM163.03 23.3151L162.938 21.9087H162.884C162.324 22.9714 161.382 23.5139 160.065 23.5139C157.947 23.5139 156.379 21.656 156.379 19.0418C156.379 16.3013 158.005 14.3708 160.225 14.3708C161.4 14.3708 162.233 14.7666 162.702 15.5618H162.741V10.5322H164.695V20.9536C164.695 21.8009 164.715 22.5942 164.767 23.3151H163.03ZM162.741 18.1592C162.741 16.933 161.927 15.8869 160.685 15.8869C159.238 15.8869 158.353 17.1671 158.353 18.9693C158.353 20.7363 159.272 21.9458 160.646 21.9458C161.873 21.9458 162.741 20.8812 162.741 19.6196V18.1592ZM177.081 23.5139C174.517 23.5139 172.853 21.6021 172.853 19.0065C172.853 16.3013 174.552 14.3727 177.226 14.3727C179.757 14.3727 181.456 16.1935 181.456 18.8634C181.457 21.6021 179.705 23.5139 177.081 23.5139ZM177.154 15.7959C175.746 15.7959 174.842 17.1113 174.842 18.9507C174.842 20.7548 175.764 22.0703 177.135 22.0703C178.509 22.0703 179.429 20.6638 179.429 18.9136C179.433 17.1299 178.53 15.7959 177.154 15.7959ZM191.952 23.3151H189.998V18.2837C189.998 16.7342 189.402 15.9575 188.227 15.9575C187.07 15.9575 186.277 16.9497 186.277 18.1035V23.3151H184.324V17.0575C184.324 16.2827 184.305 15.4522 184.251 14.551H185.968L186.059 15.9037H186.113C186.637 14.9672 187.704 14.3708 188.896 14.3708C190.739 14.3708 191.952 15.7773 191.952 18.0663V23.3151ZM205.083 16.0133H202.936V20.2681C202.936 21.3513 203.312 21.8919 204.072 21.8919C204.416 21.8919 204.705 21.8548 204.938 21.8009L204.992 23.2798C204.614 23.4248 204.107 23.4972 203.478 23.4972C201.939 23.4972 201.019 22.65 201.019 20.4316V16.0133H199.738V14.5529H201.019V12.9476L202.936 12.3698V14.551H205.083V16.0133ZM215.415 23.3151H213.465V18.3209C213.465 16.7528 212.871 15.9594 211.694 15.9594C210.683 15.9594 209.741 16.645 209.741 18.0329V23.3151H207.791V10.5322H209.741V15.7959H209.78C210.394 14.8409 211.284 14.3708 212.42 14.3708C214.279 14.3708 215.415 15.8126 215.415 18.1035V23.3151ZM226 19.4022H220.143C220.181 21.0614 221.281 21.9978 222.911 21.9978C223.777 21.9978 224.574 21.8529 225.278 21.5835L225.581 22.9361C224.751 23.2966 223.773 23.4768 222.635 23.4768C219.888 23.4768 218.263 21.7451 218.263 19.0604C218.263 16.3737 219.927 14.3541 222.416 14.3541C224.66 14.3541 226.068 16.0133 226.068 18.5197C226.08 18.8155 226.058 19.1117 226 19.4022ZM224.211 18.0143C224.211 16.6617 223.527 15.7067 222.28 15.7067C221.158 15.7067 220.272 16.6803 220.145 18.0143H224.211Z" fill="white"/>
</svg>
