<svg width="251" height="71" viewBox="0 0 251 71" fill="none" xmlns="http://www.w3.org/2000/svg">
<path d="M241.704 71H9.2963C4.09037 71 0 67.095 0 62.125V8.875C0 3.905 4.09037 0 9.2963 0H241.704C246.91 0 251 3.905 251 8.875V62.125C251 67.095 246.91 71 241.704 71Z" fill="black"/>
<path d="M88.2031 18.9806C88.2031 20.4692 87.8309 21.7718 86.9005 22.7022C85.784 23.8187 84.4814 24.3769 82.8067 24.3769C81.132 24.3769 79.8294 23.8187 78.7129 22.7022C77.5964 21.5857 77.0381 20.2831 77.0381 18.6084C77.0381 16.9337 77.5964 15.6311 78.7129 14.5146C79.8294 13.3981 81.132 12.8398 82.8067 12.8398C83.551 12.8398 84.2954 13.0259 85.0397 13.3981C85.784 13.7703 86.3423 14.1424 86.7144 14.7007L85.784 15.6311C85.0397 14.7007 84.1093 14.3285 82.8067 14.3285C81.6902 14.3285 80.5737 14.7007 79.8294 15.6311C78.899 16.3754 78.5268 17.4919 78.5268 18.7945C78.5268 20.0971 78.899 21.2135 79.8294 21.9579C80.7598 22.7022 81.6902 23.2605 82.8067 23.2605C84.1093 23.2605 85.0397 22.8883 85.9701 21.9579C86.5283 21.3996 86.9005 20.6553 86.9005 19.7249H82.8067V18.2362H88.2031V18.9806ZM96.7629 14.3285H91.7386V17.8641H96.3907V19.1666H91.7386V22.7022H96.7629V24.1909H90.25V13.0259H96.7629V14.3285ZM102.904 24.1909H101.415V14.3285H98.2515V13.0259H106.067V14.3285H102.904V24.1909ZM111.463 24.1909V13.0259H112.952V24.1909H111.463ZM119.279 24.1909H117.79V14.3285H114.627V13.0259H122.256V14.3285H119.093V24.1909H119.279ZM136.957 22.7022C135.84 23.8187 134.538 24.3769 132.863 24.3769C131.188 24.3769 129.886 23.8187 128.769 22.7022C127.653 21.5857 127.094 20.2831 127.094 18.6084C127.094 16.9337 127.653 15.6311 128.769 14.5146C129.886 13.3981 131.188 12.8398 132.863 12.8398C134.538 12.8398 135.84 13.3981 136.957 14.5146C138.073 15.6311 138.631 16.9337 138.631 18.6084C138.631 20.2831 138.073 21.5857 136.957 22.7022ZM129.886 21.7718C130.63 22.5161 131.746 23.0744 132.863 23.0744C133.979 23.0744 135.096 22.7022 135.84 21.7718C136.584 21.0275 137.143 19.911 137.143 18.6084C137.143 17.3058 136.771 16.1893 135.84 15.445C135.096 14.7007 133.979 14.1424 132.863 14.1424C131.746 14.1424 130.63 14.5146 129.886 15.445C129.141 16.1893 128.583 17.3058 128.583 18.6084C128.583 19.911 128.955 21.0275 129.886 21.7718ZM140.678 24.1909V13.0259H142.353L147.749 21.7718V13.0259H149.238V24.1909H147.749L141.981 15.0728V24.1909H140.678Z" fill="white" stroke="white" stroke-width="1.18519" stroke-miterlimit="10"/>
<path d="M126.722 40.5662C122.256 40.5662 118.721 43.9157 118.721 48.5677C118.721 53.0337 122.256 56.5693 126.722 56.5693C131.188 56.5693 134.724 53.2198 134.724 48.5677C134.724 43.7296 131.188 40.5662 126.722 40.5662ZM126.722 53.2198C124.303 53.2198 122.256 51.1729 122.256 48.3816C122.256 45.5904 124.303 43.5435 126.722 43.5435C129.141 43.5435 131.188 45.4043 131.188 48.3816C131.188 51.1729 129.141 53.2198 126.722 53.2198ZM109.416 40.5662C104.95 40.5662 101.415 43.9157 101.415 48.5677C101.415 53.0337 104.95 56.5693 109.416 56.5693C113.882 56.5693 117.418 53.2198 117.418 48.5677C117.418 43.7296 113.882 40.5662 109.416 40.5662ZM109.416 53.2198C106.997 53.2198 104.95 51.1729 104.95 48.3816C104.95 45.5904 106.997 43.5435 109.416 43.5435C111.835 43.5435 113.882 45.4043 113.882 48.3816C113.882 51.1729 111.835 53.2198 109.416 53.2198ZM88.7613 42.9853V46.3347H96.7628C96.5767 48.1956 95.8324 49.6842 94.902 50.6146C93.7855 51.7311 91.9247 53.0337 88.7613 53.0337C83.7371 53.0337 80.0154 49.126 80.0154 44.1017C80.0154 39.0775 83.9232 35.1698 88.7613 35.1698C91.3664 35.1698 93.4134 36.2863 94.902 37.5889L97.3211 35.1698C95.2742 33.309 92.669 31.8203 88.9474 31.8203C82.2484 31.8203 76.4799 37.4028 76.4799 44.1017C76.4799 50.8007 82.2484 56.3832 88.9474 56.3832C92.669 56.3832 95.2742 55.2667 97.5072 52.8476C99.7402 50.6146 100.484 47.4512 100.484 45.0322C100.484 44.2878 100.484 43.5435 100.298 42.9853H88.7613ZM173.243 45.5904C172.498 43.7296 170.638 40.5662 166.544 40.5662C162.45 40.5662 159.1 43.7296 159.1 48.5677C159.1 53.0337 162.45 56.5693 166.916 56.5693C170.451 56.5693 172.684 54.3363 173.429 53.0337L170.824 51.1729C169.893 52.4754 168.777 53.4059 166.916 53.4059C165.055 53.4059 163.939 52.6615 163.008 50.9868L173.615 46.5208L173.243 45.5904ZM162.45 48.1956C162.45 45.2182 164.869 43.5435 166.544 43.5435C167.846 43.5435 169.149 44.2878 169.521 45.2182L162.45 48.1956ZM153.704 55.8249H157.24V32.5646H153.704V55.8249ZM148.122 42.2409C147.191 41.3105 145.702 40.3801 143.842 40.3801C139.934 40.3801 136.212 43.9157 136.212 48.3816C136.212 52.8476 139.748 56.1971 143.842 56.1971C145.702 56.1971 147.191 55.2667 147.935 54.3363H148.122V55.4528C148.122 58.4301 146.447 60.1048 143.842 60.1048C141.795 60.1048 140.306 58.6162 139.934 57.3136L136.957 58.6162C137.887 60.6631 140.12 63.2682 144.028 63.2682C148.122 63.2682 151.471 60.8492 151.471 55.0806V40.9383H148.122V42.2409ZM144.028 53.2198C141.609 53.2198 139.562 51.1729 139.562 48.3816C139.562 45.5904 141.609 43.5435 144.028 43.5435C146.447 43.5435 148.308 45.5904 148.308 48.3816C148.308 51.1729 146.447 53.2198 144.028 53.2198ZM189.432 32.5646H181.058V55.8249H184.594V47.0791H189.432C193.34 47.0791 197.061 44.2878 197.061 39.8218C197.061 35.3559 193.34 32.5646 189.432 32.5646ZM189.618 43.7296H184.594V35.728H189.618C192.223 35.728 193.712 37.961 193.712 39.6358C193.526 41.6827 192.037 43.7296 189.618 43.7296ZM211.017 40.3801C208.412 40.3801 205.807 41.4966 204.877 43.9157L208.04 45.2182C208.784 43.9157 209.901 43.5435 211.203 43.5435C213.064 43.5435 214.739 44.66 214.925 46.5208V46.7069C214.367 46.3347 212.878 45.7765 211.39 45.7765C208.04 45.7765 204.691 47.6373 204.691 50.9868C204.691 54.1502 207.482 56.1971 210.459 56.1971C212.878 56.1971 213.995 55.0806 214.925 53.9641H215.111V55.8249H218.461V46.893C218.089 42.7992 214.925 40.3801 211.017 40.3801ZM210.645 53.2198C209.529 53.2198 207.854 52.6615 207.854 51.1729C207.854 49.312 209.901 48.7538 211.576 48.7538C213.064 48.7538 213.809 49.126 214.739 49.4981C214.367 51.7311 212.506 53.2198 210.645 53.2198ZM230.184 40.9383L226.276 50.9868H226.09L221.996 40.9383H218.275L224.415 55.0806L220.88 62.8961H224.415L233.905 40.9383H230.184ZM198.922 55.8249H202.458V32.5646H198.922V55.8249Z" fill="white"/>
<path d="M19.3527 13.9556C18.7944 14.5138 18.6083 15.4442 18.6083 16.5607V57.6849C18.6083 58.8014 18.9805 59.7318 19.5387 60.2901L19.7248 60.4761L42.799 37.4019V37.0298L19.3527 13.9556Z" fill="url(#paint0_linear_183_2)"/>
<path d="M50.2424 45.2184L42.613 37.589V37.0307L50.2424 29.4014L50.4284 29.5874L59.5465 34.7978C62.1516 36.2864 62.1516 38.7055 59.5465 40.1941L50.2424 45.2184Z" fill="url(#paint1_linear_183_2)"/>
<path d="M50.4284 45.0313L42.6129 37.2158L19.3527 60.4761C20.2831 61.4065 21.5856 61.4065 23.2604 60.6622L50.4284 45.0313Z" fill="url(#paint2_linear_183_2)"/>
<path d="M50.4284 29.4003L23.2604 13.9554C21.5856 13.025 20.2831 13.2111 19.3527 14.1415L42.6129 37.2157L50.4284 29.4003Z" fill="url(#paint3_linear_183_2)"/>
<path opacity="0.2" d="M50.2423 44.8457L23.2604 60.1044C21.7717 61.0349 20.4692 60.8488 19.5387 60.1044L19.3527 60.2905L19.5387 60.4766C20.4692 61.2209 21.7717 61.407 23.2604 60.4766L50.2423 44.8457Z" fill="black"/>
<path opacity="0.12" d="M19.3527 60.1039C18.7944 59.5457 18.6083 58.6153 18.6083 57.4988V57.6849C18.6083 58.8014 18.9805 59.7318 19.5387 60.29V60.1039H19.3527ZM59.5464 39.6349L50.2423 44.8452L50.4284 45.0313L59.5464 39.821C60.849 39.0766 61.4073 38.1462 61.4073 37.2158C61.4073 38.1462 60.6629 38.8906 59.5464 39.6349Z" fill="black"/>
<path opacity="0.25" d="M23.2603 14.1419L59.5463 34.7971C60.6628 35.5414 61.4071 36.2857 61.4071 37.2161C61.4071 36.2857 60.8489 35.3553 59.5463 34.611L23.2603 13.9558C20.6551 12.4672 18.6082 13.5837 18.6082 16.561V16.7471C18.6082 13.9558 20.6551 12.6533 23.2603 14.1419Z" fill="white"/>
<defs>
<linearGradient id="paint0_linear_183_2" x1="40.566" y1="16.2072" x2="9.33586" y2="47.4355" gradientUnits="userSpaceOnUse">
<stop stop-color="#00A0FF"/>
<stop offset="0.007" stop-color="#00A1FF"/>
<stop offset="0.26" stop-color="#00BEFF"/>
<stop offset="0.512" stop-color="#00D2FF"/>
<stop offset="0.76" stop-color="#00DFFF"/>
<stop offset="1" stop-color="#00E3FF"/>
</linearGradient>
<linearGradient id="paint1_linear_183_2" x1="62.9592" y1="37.2187" x2="17.9329" y2="37.2187" gradientUnits="userSpaceOnUse">
<stop stop-color="#FFE000"/>
<stop offset="0.409" stop-color="#FFBD00"/>
<stop offset="0.775" stop-color="#FFA500"/>
<stop offset="1" stop-color="#FF9C00"/>
</linearGradient>
<linearGradient id="paint2_linear_183_2" x1="46.1988" y1="41.4883" x2="3.85015" y2="83.8369" gradientUnits="userSpaceOnUse">
<stop stop-color="#FF3A44"/>
<stop offset="1" stop-color="#C31162"/>
</linearGradient>
<linearGradient id="paint3_linear_183_2" x1="13.5785" y1="0.32678" x2="32.4901" y2="19.2383" gradientUnits="userSpaceOnUse">
<stop stop-color="#32A071"/>
<stop offset="0.069" stop-color="#2DA771"/>
<stop offset="0.476" stop-color="#15CF74"/>
<stop offset="0.801" stop-color="#06E775"/>
<stop offset="1" stop-color="#00F076"/>
</linearGradient>
</defs>
</svg>
