<svg width="751" height="215" viewBox="0 0 751 215" fill="none" xmlns="http://www.w3.org/2000/svg">
<path d="M16.45 27.3401H19.21C28.29 27.3401 35.66 34.7001 35.66 43.7901V177.76H93.04C102.12 177.76 109.49 185.12 109.49 194.21C109.49 203.29 102.13 210.66 93.04 210.66H16.45C7.37 210.66 0 203.3 0 194.21V43.7901C0 34.7101 7.36 27.3401 16.45 27.3401Z" fill="black"/>
<path d="M529.37 27.3401H529.95C537.17 27.3401 543.66 31.7501 546.32 38.4701L596.16 164.46L646.48 38.4201C649.15 31.7301 655.63 27.3401 662.83 27.3401C675.42 27.3401 683.93 40.1601 679.06 51.7701L616.77 199.89C614.02 206.42 607.63 210.67 600.54 210.67H589.43C582.26 210.67 575.81 206.32 573.12 199.68L513.06 51.5601C508.37 39.9901 516.88 27.3401 529.37 27.3401Z" fill="black"/>
<path d="M416.06 23.5701C470.56 23.5701 513.75 65.7601 513.75 119C513.75 172.24 470.56 214.43 416.06 214.43C361.56 214.43 318.62 172.49 318.62 119C318.62 65.5101 361.56 23.5701 416.06 23.5701ZM416.06 180.02C449.21 180.02 475.33 153.15 475.33 119C475.33 84.8501 449.21 57.9801 416.06 57.9801C382.91 57.9801 357.04 84.8501 357.04 119C357.04 153.15 382.91 180.02 416.06 180.02Z" fill="#316FF6"/>
<path d="M416.18 97.76C407.4 97.76 400.25 104.96 400.25 113.8C400.25 126.37 414.68 139.35 415.3 139.9C415.55 140.12 415.87 140.24 416.18 140.24C416.49 140.24 416.81 140.13 417.06 139.91C417.67 139.36 432.11 126.38 432.11 113.81C432.11 104.96 424.96 97.77 416.18 97.77V97.76ZM416.18 122.54C411.3 122.54 407.33 118.57 407.33 113.69C407.33 108.81 411.3 104.84 416.18 104.84C421.06 104.84 425.03 108.81 425.03 113.69C425.03 118.57 421.06 122.54 416.18 122.54Z" fill="#FF1010"/>
<path d="M206.93 23.5701C261.43 23.5701 304.62 65.7601 304.62 119C304.62 172.24 261.43 214.43 206.93 214.43C152.43 214.43 109.49 172.49 109.49 119C109.49 65.5101 152.44 23.5701 206.93 23.5701ZM206.93 180.02C240.08 180.02 266.2 153.15 266.2 119C266.2 84.8501 240.08 57.9801 206.93 57.9801C173.78 57.9801 147.91 84.8501 147.91 119C147.91 153.15 173.78 180.02 206.93 180.02Z" fill="#316FF6"/>
<path d="M207.06 97.76C198.28 97.76 191.13 104.96 191.13 113.8C191.13 126.37 205.56 139.35 206.18 139.9C206.43 140.12 206.75 140.24 207.06 140.24C207.37 140.24 207.69 140.13 207.94 139.91C208.55 139.36 222.99 126.38 222.99 113.81C222.99 104.96 215.84 97.77 207.06 97.77V97.76ZM207.06 122.54C202.18 122.54 198.21 118.57 198.21 113.69C198.21 108.81 202.18 104.84 207.06 104.84C211.94 104.84 215.91 108.81 215.91 113.69C215.91 118.57 211.94 122.54 207.06 122.54Z" fill="#FF1010"/>
<path d="M725.5 0C711.43 0 700.03 11.4 700.03 25.47C700.03 39.54 711.43 50.94 725.5 50.94C739.57 50.94 750.97 39.54 750.97 25.47C750.95 11.41 739.56 0.02 725.5 0ZM725.5 48.39C712.84 48.39 702.58 38.13 702.58 25.47C702.58 12.81 712.84 2.55 725.5 2.55C738.16 2.55 748.42 12.81 748.42 25.47C748.41 38.12 738.15 48.38 725.5 48.39Z" fill="black"/>
<path d="M721.68 17.83H711.49C710.79 17.83 710.22 18.4 710.22 19.1C710.22 19.8 710.79 20.37 711.49 20.37H715.31V31.83C715.31 32.53 715.88 33.1 716.58 33.1C717.28 33.1 717.85 32.53 717.85 31.83V20.37H721.67C722.37 20.37 722.94 19.8 722.94 19.1C722.94 18.4 722.37 17.83 721.67 17.83H721.68Z" fill="black"/>
<path d="M737.45 17.9299C736.97 17.7299 736.43 17.8399 736.06 18.2099L731.87 22.3999L727.68 18.2099C727.18 17.7099 726.38 17.7099 725.88 18.2099C725.64 18.4499 725.51 18.7699 725.51 19.1099V31.8399C725.51 32.5399 726.08 33.1099 726.78 33.1099C727.48 33.1099 728.05 32.5399 728.05 31.8399V22.1799L730.97 25.0999C731.47 25.5999 732.27 25.5999 732.77 25.0999L735.69 22.1799V31.8399C735.69 32.5399 736.26 33.1099 736.96 33.1099C737.66 33.1099 738.23 32.5399 738.23 31.8399V19.1099C738.23 18.5999 737.92 18.1299 737.44 17.9299H737.45Z" fill="black"/>
</svg>
