<svg width="170" height="49" viewBox="0 0 170 49" fill="none" xmlns="http://www.w3.org/2000/svg">
<path d="M4.10977 1.33426H4.79931C7.0678 1.33426 8.90908 3.17304 8.90908 5.44403V38.9143H23.2446C25.5131 38.9143 27.3543 40.7531 27.3543 43.0241C27.3543 45.2926 25.5155 47.1338 23.2446 47.1338H4.10977C1.84128 47.1338 0 45.2951 0 43.0241V5.44403C0 3.17554 1.83878 1.33426 4.10977 1.33426Z" fill="black"/>
<path d="M132.255 1.33426H132.4C134.203 1.33426 135.825 2.43603 136.489 4.11491L148.941 35.5915L161.513 4.10242C162.18 2.43103 163.799 1.33426 165.598 1.33426C168.743 1.33426 170.869 4.53713 169.652 7.4377L154.09 44.4431C153.403 46.0745 151.807 47.1363 150.035 47.1363H147.26C145.468 47.1363 143.857 46.0495 143.185 44.3907L128.18 7.38524C127.008 4.49466 129.134 1.33426 132.255 1.33426Z" fill="black"/>
<path d="M103.946 0.392395C117.562 0.392395 128.352 10.9329 128.352 24.2341C128.352 37.5352 117.562 48.0757 103.946 48.0757C90.33 48.0757 79.6021 37.5977 79.6021 24.2341C79.6021 10.8704 90.33 0.392395 103.946 0.392395ZM103.946 39.4789C112.228 39.4789 118.754 32.7659 118.754 24.2341C118.754 15.7022 112.228 8.98918 103.946 8.98918C95.6639 8.98918 89.2007 15.7022 89.2007 24.2341C89.2007 32.7659 95.6639 39.4789 103.946 39.4789Z" fill="black"/>
<path d="M103.976 18.9276C101.782 18.9276 99.996 20.7264 99.996 22.9349C99.996 26.0753 103.601 29.3182 103.756 29.4556C103.818 29.5105 103.898 29.5405 103.976 29.5405C104.053 29.5405 104.133 29.513 104.196 29.4581C104.348 29.3207 107.956 26.0778 107.956 22.9374C107.956 20.7264 106.169 18.9301 103.976 18.9301V18.9276ZM103.976 25.1185C102.757 25.1185 101.765 24.1266 101.765 22.9074C101.765 21.6882 102.757 20.6964 103.976 20.6964C105.195 20.6964 106.187 21.6882 106.187 22.9074C106.187 24.1266 105.195 25.1185 103.976 25.1185Z" fill="black"/>
<path d="M51.6982 0.392395C65.3142 0.392395 76.1045 10.9329 76.1045 24.2341C76.1045 37.5352 65.3142 48.0757 51.6982 48.0757C38.0822 48.0757 27.3544 37.5977 27.3544 24.2341C27.3544 10.8704 38.0847 0.392395 51.6982 0.392395ZM51.6982 39.4789C59.9802 39.4789 66.5059 32.7659 66.5059 24.2341C66.5059 15.7022 59.9802 8.98918 51.6982 8.98918C43.4162 8.98918 36.953 15.7022 36.953 24.2341C36.953 32.7659 43.4162 39.4789 51.6982 39.4789Z" fill="black"/>
<path d="M51.7306 18.9276C49.5371 18.9276 47.7508 20.7264 47.7508 22.9349C47.7508 26.0753 51.3559 29.3182 51.5108 29.4556C51.5732 29.5105 51.6532 29.5405 51.7306 29.5405C51.8081 29.5405 51.888 29.513 51.9505 29.4581C52.1029 29.3207 55.7105 26.0778 55.7105 22.9374C55.7105 20.7264 53.9242 18.9301 51.7306 18.9301V18.9276ZM51.7306 25.1185C50.5114 25.1185 49.5196 24.1266 49.5196 22.9074C49.5196 21.6882 50.5114 20.6964 51.7306 20.6964C52.9498 20.6964 53.9416 21.6882 53.9416 22.9074C53.9416 24.1266 52.9498 25.1185 51.7306 25.1185Z" fill="black"/>
</svg>
