<svg width="24" height="24" viewBox="0 0 24 24" fill="none" xmlns="http://www.w3.org/2000/svg">
<path d="M23.7881 4.76855L16.5094 12.0004L23.7881 19.2322C23.9196 18.9572 23.9995 18.6532 23.9995 18.3285V5.67226C23.9995 5.34755 23.9196 5.04357 23.7881 4.76855Z" fill="#316FF6"/>
<path d="M21.8906 3.5625H2.10938C1.78467 3.5625 1.48069 3.64233 1.20567 3.77391L10.5086 13.03C11.3312 13.8525 12.6688 13.8525 13.4914 13.03L22.7943 3.77391C22.5193 3.64233 22.2153 3.5625 21.8906 3.5625Z" fill="#316FF6"/>
<path d="M0.211406 4.76807C0.0798281 5.04308 0 5.34707 0 5.67177V18.328C0 18.6527 0.0798281 18.9568 0.211406 19.2317L7.49011 11.9999L0.211406 4.76807Z" fill="#316FF6"/>
<path d="M15.5158 12.9937L14.4858 14.0236C13.1152 15.3942 10.8851 15.3942 9.5145 14.0236L8.48456 12.9937L1.20586 20.2255C1.48087 20.3571 1.78486 20.4369 2.10956 20.4369H21.8908C22.2155 20.4369 22.5195 20.3571 22.7945 20.2255L15.5158 12.9937Z" fill="#316FF6"/>
</svg>
