<svg width="70" height="70" viewBox="0 0 70 70" fill="none" xmlns="http://www.w3.org/2000/svg">
<g clip-path="url(#clip0_1_98)">
<path d="M52.2771 24.011C44.1453 19.4628 31.0936 12.1594 10.8493 0.824142C9.48447 -0.0772469 7.91411 -0.195372 6.55731 0.263867L41.2908 34.9973L52.2771 24.011Z" fill="#32BBFF"/>
<path d="M6.55733 0.26387C6.30303 0.350003 6.05557 0.45391 5.81891 0.579418C4.3206 1.38989 3.2196 2.94944 3.2196 4.92189V65.0728C3.2196 67.0452 4.32047 68.6048 5.81891 69.4151C6.05516 69.5405 6.30248 69.6448 6.55651 69.7315L41.2908 34.9973L6.55733 0.26387Z" fill="#32BBFF"/>
<path d="M41.2908 34.9973L6.55652 69.7315C7.91373 70.1941 9.48408 70.085 10.8494 69.1705C30.4819 58.1769 43.3866 50.9601 51.6124 46.3732C51.8414 46.2445 52.0658 46.1187 52.2875 45.9942L41.2908 34.9973Z" fill="#32BBFF"/>
<path d="M3.2196 34.9973V65.0728C3.2196 67.0452 4.32047 68.6048 5.81891 69.4151C6.05516 69.5405 6.30248 69.6448 6.55651 69.7315L41.2908 34.9973H3.2196Z" fill="#2C9FD9"/>
<path d="M10.8493 0.824221C9.22854 -0.246015 7.31721 -0.215527 5.81891 0.579631L40.7636 35.5245L52.277 24.0111C44.1454 19.4629 31.0936 12.1595 10.8493 0.824221Z" fill="#29CC5E"/>
<path d="M40.7639 34.4704L5.81891 69.4151C7.31735 70.2102 9.22854 70.2561 10.8493 69.1705C30.4819 58.177 43.3866 50.9601 51.6124 46.3732C51.8414 46.2445 52.0658 46.1188 52.2875 45.9942L40.7639 34.4704Z" fill="#D93F21"/>
<path d="M66.7804 34.9973C66.7804 33.3307 65.9394 31.6488 64.2727 30.7161C64.2727 30.7161 61.1556 28.9769 51.6013 23.6328L40.2368 34.9973L51.6124 46.373C61.0619 41.0674 64.2726 39.2784 64.2726 39.2784C65.9394 38.3459 66.7804 36.6639 66.7804 34.9973Z" fill="#FFD500"/>
<path d="M64.2727 39.2786C65.9394 38.3459 66.7804 36.6639 66.7804 34.9973H40.2368L51.6124 46.373C61.062 41.0675 64.2727 39.2786 64.2727 39.2786Z" fill="#FFAA00"/>
</g>
<defs>
<clipPath id="clip0_1_98">
<rect width="70" height="70" fill="white"/>
</clipPath>
</defs>
</svg>
