<svg width="674" height="1305" viewBox="0 0 674 1305" fill="none" xmlns="http://www.w3.org/2000/svg">
<mask id="mask0_127_7" style="mask-type:alpha" maskUnits="userSpaceOnUse" x="0" y="0" width="674" height="1305">
<rect width="674" height="1305" fill="#D4EDEA"/>
</mask>
<g mask="url(#mask0_127_7)">
<g opacity="0.2">
<path d="M666.66 9.17773C1032.82 9.17773 1323 292.969 1323 651.089C1323 1009.21 1032.82 1293 666.66 1293C300.497 1293 12 1010.89 12 651.089C12 291.288 300.497 9.17773 666.66 9.17773ZM666.66 1061.54C889.382 1061.54 1064.87 880.799 1064.87 651.089C1064.87 421.378 889.382 240.637 666.66 240.637C443.939 240.637 270.129 421.378 270.129 651.089C270.129 880.799 443.939 1061.54 666.66 1061.54Z" fill="#2D8981"/>
<path d="M666.853 508.729C607.649 508.729 559.436 556.987 559.436 616.236C559.436 700.486 656.738 787.483 660.919 791.169C662.605 792.644 664.763 793.448 666.853 793.448C668.943 793.448 671.101 792.711 672.787 791.236C676.9 787.55 774.269 700.553 774.269 616.303C774.269 556.987 726.057 508.796 666.853 508.796V508.729ZM666.853 674.815C633.947 674.815 607.177 648.207 607.177 615.499C607.177 582.791 633.947 556.183 666.853 556.183C699.759 556.183 726.529 582.791 726.529 615.499C726.529 648.207 699.759 674.815 666.853 674.815Z" fill="#2D8981"/>
</g>
</g>
</svg>
