<svg width="1153" height="318" viewBox="0 0 1153 318" fill="none" xmlns="http://www.w3.org/2000/svg">
<mask id="mask0_171_106" style="mask-type:alpha" maskUnits="userSpaceOnUse" x="0" y="0" width="1153" height="318">
<rect width="1153" height="318" fill="black"/>
</mask>
<g mask="url(#mask0_171_106)">
<g opacity="0.25">
<path d="M885.013 160.211L824.559 145.522L584.443 151.738L583.396 151.607L348.416 117.062L273.666 80.3901L119.619 51.5042L125.671 47.7749L280.863 76.6608L355.254 112.776L585.326 146.34L825.115 140.157L882.985 154.126L1046.94 120.857L1054.57 125.502L885.013 160.211Z" fill="url(#paint0_radial_171_106)"/>
<path d="M28.5127 399.507L24.0964 398.525L164.24 260.181L350.248 114.574L443.154 34.6223L481.985 -24L484.929 -23.771L446.262 35.0149L353.487 115.228L168.035 261.031L28.5127 399.507Z" fill="url(#paint1_radial_171_106)"/>
<path d="M375.83 462.12L370.694 461.106L455.193 314.976L583.036 148.694L646.14 49.4087L668.516 -14.0552L671.591 -13.7935L649.477 49.7685L586.766 149.315L459.609 315.826L375.83 462.12Z" fill="url(#paint2_radial_171_106)"/>
<path d="M980.765 508.246L829.63 431.893L829.924 430.846L876.41 267.411L823.022 143.1L646.926 50.2268L444.594 35.5058L352.767 40.9362L268.727 46.9554L156.88 35.0478L158.352 33.8047L269.316 45.5815L352.506 39.6604L444.757 34.1973L445.019 34.23L648.659 49.0164L826.653 142.577L881.055 268.065L835.551 431.01L983.48 505.465L980.765 508.246Z" fill="url(#paint3_radial_171_106)"/>
<path d="M457.254 316.71L456.632 316.612L164.698 261.555L66.7875 226.585L11.3384 199.989L-22.7816 146.83L-18.856 145.914L15.3948 198.778L70.0588 224.785L167.545 259.462L457.646 313.995L734.172 282.197L877.816 266.462L979.457 243.203L980.373 243.399L1149.11 277.356L1148.91 279.613L980.733 245.657L880.074 268.752L735.71 284.618L457.254 316.71Z" fill="url(#paint4_radial_171_106)"/>
<path d="M126.195 421.917L121.419 421.099L236.439 273.857L410.474 123.408L499.389 38.7132L523.924 -7.54346L526.966 -7.28174L502.562 39.073L413.843 124.062L240.43 274.674L126.195 421.917Z" fill="url(#paint5_radial_171_106)"/>
<path d="M268.465 429.702L263.558 428.786L353.552 295.872L499.716 136.493L574.727 44.2082L594.682 -4.10938L597.758 -3.88038L577.999 44.5681L503.281 137.114L357.773 296.69L268.465 429.702Z" fill="url(#paint6_radial_171_106)"/>
<path d="M476.686 409.483L525.592 306.893L550.127 269.077L501.319 258.02L406.254 241.14L297.384 223.442L207.684 205.875L153.87 187.817L104.408 173.619H83.2096L85.2378 156.87L35.0555 116.796L38.5559 115.75L89.327 156.052L87.495 171.722H106.338L106.73 171.82L156.618 186.083L210.137 204.043L299.216 221.414L407.791 239.013L502.889 255.861L555.786 267.768L530.041 307.711L483.981 405.459L560.399 397.477L696.519 363.978L797.538 384.032H883.279L899.603 302.117L955.38 291.584L956.361 291.845L1111.16 331.658L1110.44 334.078L956.263 294.332L904.151 304.178L888.056 387.107L797.145 387.008L697.272 367.119L561.707 400.552L476.686 409.483Z" fill="url(#paint7_radial_171_106)"/>
<path d="M795.87 206.139L783.602 172.411L560.366 181.865L560.006 181.8L471.419 169.99L378.12 153.372L316.685 142.086L235.621 108.359L97.7344 82.1552L99.8607 80.7812L238.042 106.952L238.238 107.05L319.236 140.647L379.756 151.671L472.727 168.191L560.595 179.903L786.841 170.35L799.141 203.685L848.8 199.138L937.649 186.053L1030.26 153.667L1033.37 155.204L940.037 187.917L850.599 201.134L795.87 206.139Z" fill="url(#paint8_radial_171_106)"/>
<path d="M549.473 270.028L592.654 205.942H542.145L542.047 203.881H799.239L812.848 240.847L549.473 270.028ZM597.136 205.942L556.441 266.822L807.81 239.048L795.771 205.975H597.103L597.136 205.942Z" fill="url(#paint9_radial_171_106)"/>
<path d="M694.524 365.812L656.707 292.37L636.457 258.872L636.621 258.545L662.105 204.764L650.459 146.959L650.851 146.73L732.667 94.1601L818.801 91.8048L905.95 51.1421L908.829 52.1562L820.961 93.2769L734.99 95.6649L654.482 147.614L666.259 205.255L641.103 258.97L661.123 291.847L699.3 365.288L694.524 365.812Z" fill="url(#paint10_radial_171_106)"/>
<path d="M1129.48 229.201L1002.13 208.46L927.508 148.202L887.107 120.56L821.877 94.2909L826.784 142.968L822.891 142.707L817.885 90.7905L890.018 119.807L930.812 147.581L1004.52 206.857L1129.41 227.172L1129.48 229.201Z" fill="url(#paint11_radial_171_106)"/>
<path d="M1116.03 197.077L1022.15 187.819L960.777 141.432L941.607 124.912L883.443 99.2644L935.392 72.6357L938.467 73.7153L888.383 99.4607L944.813 124.356L964.147 140.941L1024.21 186.118L1115.41 195.114L1116.03 197.077Z" fill="url(#paint12_radial_171_106)"/>
<path d="M1073.61 430.681L954.529 394.533L953.482 292.337L977.854 243.888L1001.21 207.118L1021.1 186.444L1029.9 153.599L1080.51 150.23L1082.37 151.997L1033.76 155.268L1025.19 187.556L1005.37 208.296L982.27 245.033L958.226 293.416L959.829 393.061L1074.65 427.803L1073.61 430.681Z" fill="url(#paint13_radial_171_106)"/>
<path d="M787.233 171.395H783.242L773.33 144.112L772.512 116.143L776.274 116.404L777.19 144.243L787.233 171.395Z" fill="url(#paint14_radial_171_106)"/>
<path d="M-158.051 246.899L-159 245.002L12.7777 198.614L84.3218 171.986L86.4154 173.327L14.4134 200.185L-158.051 246.899Z" fill="url(#paint15_radial_171_106)"/>
<path d="M128.027 165.442L124.559 164.853L162.67 133.088L235.49 107.179L275.433 78.4568L267.32 46.3978V18.7877L222.012 1.02437L224.498 0.173828L270.559 18.1989L270.722 46.1688L279.097 78.5877L237.878 108.226L165.549 134.069L128.027 165.442Z" fill="url(#paint16_radial_171_106)"/>
<path d="M230.518 179.999L173.662 165.572L190.706 154.025L193.879 154.843L179.321 164.722L229.602 177.447L273.176 146.631L229.111 130.831L202.45 147.613L162.736 134.299L94.6593 108.291L97.5054 107.016L165.516 132.892L202.057 145.094L228.751 128.377L278.345 146.075L230.518 179.999Z" fill="url(#paint17_radial_171_106)"/>
<path d="M363.563 166.031L300.23 155.203L274.517 147.122L277.003 145.618L302.552 153.6L365.166 164.264L363.563 166.031Z" fill="url(#paint18_radial_171_106)"/>
<path d="M734.205 95.6976L620.69 93.3095L461.703 76.6911L403.44 69.9849L323.783 42.6038L312.955 12.8347L313.021 12.7366L331.046 -14.0229L334.023 -13.8594L316.227 12.7693L326.924 41.8514L405.469 68.7745L462.652 75.2844L544.271 83.7572L620.951 91.8047L733.649 94.16L816.871 91.8374L745.131 44.2722L745.818 43.9451L814.974 11.9841L817.657 12.8347L749.22 44.5666L822.891 93.2441L734.205 95.6976Z" fill="url(#paint19_radial_171_106)"/>
<path d="M648.169 50.2903L647.416 48.9491L744.51 43.8785L706.628 18.6893L732.406 -6.36914L735.35 -5.84573L710.193 18.722L749.842 44.9581L648.169 50.2903Z" fill="url(#paint20_radial_171_106)"/>
<path d="M902.155 304.443L868.689 302.12L781.77 278.893L755.697 245.951L725.568 145.554L692.168 121.837L605.511 117.093L381.293 89.4178L343.509 76.8232L277.2 79.244L277.363 77.8046L344.851 75.3184L383.125 88.0438L606.001 115.49L694.196 120.299L729.298 145.129L760.016 245.788L785.139 277.258L869.573 299.765L901.599 301.891L902.155 304.443Z" fill="url(#paint21_radial_171_106)"/>
<path d="M808.039 356.229L728.284 339.414L708.427 306.865L712.876 306.341L731.98 337.386L804.506 352.63L828.844 309.056L832.803 291.489L837.448 292.242L833.522 310.038L808.039 356.229Z" fill="url(#paint22_radial_171_106)"/>
<path d="M621.802 383.902L607.473 360.577L659.553 353.348L638.093 310.984L587.387 316.905L580.125 300.875L628.017 204.6L632.074 205.222L584.934 301.006L590.79 313.764L641.299 307.876L665.703 355.507L613.983 362.704L626.545 383.051L621.802 383.902Z" fill="url(#paint23_radial_171_106)"/>
<path d="M-79.3759 303.918L-82.2219 302.414L66.9181 225.014L143.533 183.468L174.97 164.658L178.013 165.606L146.51 184.515L69.7969 226.257L-79.3759 303.918Z" fill="url(#paint24_radial_171_106)"/>
<path d="M13.1049 338.266L9.27747 337.122L126.587 246.604L193.617 199.922L228.522 178.2L231.63 179.214L196.856 200.903L130.121 247.585L13.1049 338.266Z" fill="url(#paint25_radial_171_106)"/>
<path d="M124.723 147.091L92.6309 135.183L128.19 119.84L187.074 98.0205L229.242 69.5272L267.647 45.9409L270.428 46.5625L232.153 70.1488L189.462 99.0019L130.447 120.92L98.3884 134.823L127.634 145.618L124.723 147.091Z" fill="url(#paint26_radial_171_106)"/>
<path d="M342.528 76.3961L324.012 57.455L327.218 56.8335L345.832 75.7418L342.528 76.3961Z" fill="url(#paint27_radial_171_106)"/>
<path d="M528.045 223.444L435.99 208.658L333.99 191.68L335.658 189.815L437.43 206.695L529.256 221.383L528.045 223.444Z" fill="url(#paint28_radial_171_106)"/>
<path d="M700.314 252.624L695.897 252.101L702.506 222.168L706.758 222.659L700.314 252.624Z" fill="url(#paint29_radial_171_106)"/>
<path d="M977.952 244.511L936.995 187.033L940.953 186.87L982.205 244.347L977.952 244.511Z" fill="url(#paint30_radial_171_106)"/>
<path d="M935.294 255.208H930.877L882.036 157.167H885.962L935.294 255.208Z" fill="url(#paint31_radial_171_106)"/>
<path d="M691.808 73.3867H691.579L634.822 70.7369L560.203 64.6849L481.2 57.8151L424.246 52.2539L393.136 38.089L388.916 11.7875L372.101 -1.03616L374.914 -1.625L392.089 11.5258L396.407 37.5329L426.143 51.0435L481.985 56.4739L560.759 63.311L635.083 69.3302L691.318 71.9473L779.513 65.7972L861.721 35.4719L864.306 36.486L781.508 67.1384L781.083 67.1711L691.808 73.3867Z" fill="url(#paint32_radial_171_106)"/>
<path d="M777.419 94.0639L695.669 46.5968L657.328 20.1317L462.586 8.22406L390.617 12.2151L314.722 13.4255L269.25 19.0849L217.923 26.1183L217.269 24.9406L268.596 17.9072L314.689 12.2151L390.518 11.0047L462.684 7.01367L462.946 7.04638L659.259 19.0522L698.449 45.9752L780.265 93.2787L777.419 94.0639Z" fill="url(#paint33_radial_171_106)"/>
<path d="M693.346 21.1449L692.07 19.9672L707.74 18.1025L709.048 19.2802L693.346 21.1449Z" fill="url(#paint34_radial_171_106)"/>
<path d="M224.433 390.021L219.657 389.301L258.553 331.202L295.748 285.076L299.935 285.829L263.002 331.922L224.433 390.021Z" fill="url(#paint35_radial_171_106)"/>
<path d="M594.486 456.886L558.992 399.834L500.697 362.9L436.972 350.829L327.055 339.085L259.24 332.673L208.273 312.652L121.681 304.376L81.2469 283.243L2.53857 259.395L11.273 199.693L15.5585 199.268L7.31472 257.792L84.8126 281.215L124.592 301.922L211.119 310.297L261.988 330.187L328.363 336.337L438.313 348.081L503.445 360.381L563.605 398.492L599.524 455.741L594.486 456.886Z" fill="url(#paint36_radial_171_106)"/>
<path d="M479.826 409.025L408.674 400.552L300.034 378.634L237.028 366.955L169.115 362.997L82.6861 343.14L26.8117 323.283L-61.4815 292.762L-63.4771 219.68L-63.1172 219.386L-6.19602 170.937L69.1101 142.215L71.2364 143.425L-3.18638 171.853L-58.9953 219.582L-56.6727 290.962L30.2139 320.895L85.7612 340.588L171.437 360.216L238.729 364.109L302.127 375.755L410.212 397.51L480.873 405.884L479.826 409.025Z" fill="url(#paint37_radial_171_106)"/>
<path d="M351.001 231.196L347.37 230.182L385.612 199.006L389.112 199.955L351.001 231.196Z" fill="url(#paint38_radial_171_106)"/>
<path d="M482.934 215.168L479.008 214.415L510.675 174.145L514.437 174.832L482.934 215.168Z" fill="url(#paint39_radial_171_106)"/>
<path d="M482.181 101.195L478.91 100.541L501.809 79.9639L505.015 80.5854L482.181 101.195Z" fill="url(#paint40_radial_171_106)"/>
<path d="M277.821 124.42L274.713 123.635L313.871 96.7773L316.914 97.497L277.821 124.42Z" fill="url(#paint41_radial_171_106)"/>
<path d="M778.106 322.433L748.468 281.966L752.721 281.377L782.522 321.778L778.106 322.433Z" fill="url(#paint42_radial_171_106)"/>
</g>
</g>
<g clip-path="url(#clip0_171_106)">
<path d="M653.5 90C642.129 90 632.875 99.3179 632.875 110.774C632.875 127.052 651.561 143.859 652.356 144.565C652.684 144.856 653.092 145 653.5 145C653.908 145 654.316 144.856 654.644 144.567C655.439 143.859 674.125 127.052 674.125 110.774C674.125 99.3179 664.871 90 653.5 90ZM653.5 122.083C647.182 122.083 642.042 116.943 642.042 110.625C642.042 104.307 647.182 99.1667 653.5 99.1667C659.818 99.1667 664.958 104.307 664.958 110.625C664.958 116.943 659.818 122.083 653.5 122.083Z" fill="url(#paint43_linear_171_106)"/>
</g>
<g clip-path="url(#clip1_171_106)">
<path d="M785.5 223C774.129 223 764.875 232.318 764.875 243.774C764.875 260.052 783.561 276.859 784.356 277.565C784.684 277.856 785.092 278 785.5 278C785.908 278 786.316 277.856 786.644 277.567C787.439 276.859 806.125 260.052 806.125 243.774C806.125 232.318 796.871 223 785.5 223ZM785.5 255.083C779.182 255.083 774.042 249.943 774.042 243.625C774.042 237.307 779.182 232.167 785.5 232.167C791.818 232.167 796.958 237.307 796.958 243.625C796.958 249.943 791.818 255.083 785.5 255.083Z" fill="url(#paint44_linear_171_106)"/>
</g>
<g clip-path="url(#clip2_171_106)">
<path d="M857.5 47C846.129 47 836.875 56.3179 836.875 67.774C836.875 84.0517 855.561 100.859 856.356 101.565C856.684 101.856 857.092 102 857.5 102C857.908 102 858.316 101.856 858.644 101.567C859.439 100.859 878.125 84.0517 878.125 67.774C878.125 56.3179 868.871 47 857.5 47ZM857.5 79.0833C851.182 79.0833 846.042 73.9431 846.042 67.625C846.042 61.3069 851.182 56.1667 857.5 56.1667C863.818 56.1667 868.958 61.3069 868.958 67.625C868.958 73.9431 863.818 79.0833 857.5 79.0833Z" fill="url(#paint45_linear_171_106)"/>
</g>
<defs>
<radialGradient id="paint0_radial_171_106" cx="0" cy="0" r="1" gradientUnits="userSpaceOnUse" gradientTransform="translate(547.117 147.076) scale(452.327 162.838)">
<stop stop-color="#C2C2C2"/>
<stop offset="1" stop-color="white"/>
</radialGradient>
<radialGradient id="paint1_radial_171_106" cx="0" cy="0" r="1" gradientUnits="userSpaceOnUse" gradientTransform="translate(544.304 202.566) scale(647.102 232.957)">
<stop stop-color="#C2C2C2"/>
<stop offset="1" stop-color="white"/>
</radialGradient>
<radialGradient id="paint2_radial_171_106" cx="0" cy="0" r="1" gradientUnits="userSpaceOnUse" gradientTransform="translate(484.602 212.564) scale(672.095 241.954)">
<stop stop-color="#C2C2C2"/>
<stop offset="1" stop-color="white"/>
</radialGradient>
<radialGradient id="paint3_radial_171_106" cx="0" cy="0" r="1" gradientUnits="userSpaceOnUse" gradientTransform="translate(640.056 199.386) scale(735.919 264.931)">
<stop stop-color="#C2C2C2"/>
<stop offset="1" stop-color="white"/>
</radialGradient>
<radialGradient id="paint4_radial_171_106" cx="0" cy="0" r="1" gradientUnits="userSpaceOnUse" gradientTransform="translate(573.68 145.39) scale(596.233 214.644)">
<stop stop-color="#C2C2C2"/>
<stop offset="1" stop-color="white"/>
</radialGradient>
<radialGradient id="paint5_radial_171_106" cx="0" cy="0" r="1" gradientUnits="userSpaceOnUse" gradientTransform="translate(514.895 201.614) scale(679.652 244.675)">
<stop stop-color="#C2C2C2"/>
<stop offset="1" stop-color="white"/>
</radialGradient>
<radialGradient id="paint6_radial_171_106" cx="0" cy="0" r="1" gradientUnits="userSpaceOnUse" gradientTransform="translate(487.775 201.919) scale(682.989 245.876)">
<stop stop-color="#C2C2C2"/>
<stop offset="1" stop-color="white"/>
</radialGradient>
<radialGradient id="paint7_radial_171_106" cx="0" cy="0" r="1" gradientUnits="userSpaceOnUse" gradientTransform="translate(596.776 155.987) scale(673.666 242.52)">
<stop stop-color="#C2C2C2"/>
<stop offset="1" stop-color="white"/>
</radialGradient>
<radialGradient id="paint8_radial_171_106" cx="0" cy="0" r="1" gradientUnits="userSpaceOnUse" gradientTransform="translate(547.216 150.478) scale(479.316 172.554)">
<stop stop-color="#C2C2C2"/>
<stop offset="1" stop-color="white"/>
</radialGradient>
<radialGradient id="paint9_radial_171_106" cx="0" cy="0" r="1" gradientUnits="userSpaceOnUse" gradientTransform="translate(526.475 135.839) scale(666.043 239.776)">
<stop stop-color="#C2C2C2"/>
<stop offset="1" stop-color="white"/>
</radialGradient>
<radialGradient id="paint10_radial_171_106" cx="0" cy="0" r="1" gradientUnits="userSpaceOnUse" gradientTransform="translate(563.441 173.041) scale(538.821 193.976)">
<stop stop-color="#C2C2C2"/>
<stop offset="1" stop-color="white"/>
</radialGradient>
<radialGradient id="paint11_radial_171_106" cx="0" cy="0" r="1" gradientUnits="userSpaceOnUse" gradientTransform="translate(436.219 151.383) scale(621.161 223.618)">
<stop stop-color="#C2C2C2"/>
<stop offset="1" stop-color="white"/>
</radialGradient>
<radialGradient id="paint12_radial_171_106" cx="0" cy="0" r="1" gradientUnits="userSpaceOnUse" gradientTransform="translate(356.333 150.242) scale(664.866 239.352)">
<stop stop-color="#C2C2C2"/>
<stop offset="1" stop-color="white"/>
</radialGradient>
<radialGradient id="paint13_radial_171_106" cx="0" cy="0" r="1" gradientUnits="userSpaceOnUse" gradientTransform="translate(780.298 143.834) scale(583.442 210.039)">
<stop stop-color="#C2C2C2"/>
<stop offset="1" stop-color="white"/>
</radialGradient>
<radialGradient id="paint14_radial_171_106" cx="0" cy="0" r="1" gradientUnits="userSpaceOnUse" gradientTransform="translate(502.169 146.272) scale(531.101 191.196)">
<stop stop-color="#C2C2C2"/>
<stop offset="1" stop-color="white"/>
</radialGradient>
<radialGradient id="paint15_radial_171_106" cx="0" cy="0" r="1" gradientUnits="userSpaceOnUse" gradientTransform="translate(652.127 141.869) scale(662.216 238.398)">
<stop stop-color="#C2C2C2"/>
<stop offset="1" stop-color="white"/>
</radialGradient>
<radialGradient id="paint16_radial_171_106" cx="0" cy="0" r="1" gradientUnits="userSpaceOnUse" gradientTransform="translate(611.17 148.968) scale(601.304 216.469)">
<stop stop-color="#C2C2C2"/>
<stop offset="1" stop-color="white"/>
</radialGradient>
<radialGradient id="paint17_radial_171_106" cx="0" cy="0" r="1" gradientUnits="userSpaceOnUse" gradientTransform="translate(499.814 147.025) scale(451.837 162.661)">
<stop stop-color="#C2C2C2"/>
<stop offset="1" stop-color="white"/>
</radialGradient>
<radialGradient id="paint18_radial_171_106" cx="0" cy="0" r="1" gradientUnits="userSpaceOnUse" gradientTransform="translate(517.414 145.294) scale(483.961 174.226)">
<stop stop-color="#C2C2C2"/>
<stop offset="1" stop-color="white"/>
</radialGradient>
<radialGradient id="paint19_radial_171_106" cx="0" cy="0" r="1" gradientUnits="userSpaceOnUse" gradientTransform="translate(522.419 134.46) scale(410.454 147.763)">
<stop stop-color="#C2C2C2"/>
<stop offset="1" stop-color="white"/>
</radialGradient>
<radialGradient id="paint20_radial_171_106" cx="0" cy="0" r="1" gradientUnits="userSpaceOnUse" gradientTransform="translate(529.55 125.756) scale(414.969 149.389)">
<stop stop-color="#C2C2C2"/>
<stop offset="1" stop-color="white"/>
</radialGradient>
<radialGradient id="paint21_radial_171_106" cx="0" cy="0" r="1" gradientUnits="userSpaceOnUse" gradientTransform="translate(568.937 160.194) scale(604.412 217.588)">
<stop stop-color="#C2C2C2"/>
<stop offset="1" stop-color="white"/>
</radialGradient>
<radialGradient id="paint22_radial_171_106" cx="0" cy="0" r="1" gradientUnits="userSpaceOnUse" gradientTransform="translate(538.252 104.856) scale(838.704 301.933)">
<stop stop-color="#C2C2C2"/>
<stop offset="1" stop-color="white"/>
</radialGradient>
<radialGradient id="paint23_radial_171_106" cx="0" cy="0" r="1" gradientUnits="userSpaceOnUse" gradientTransform="translate(524.676 126.923) scale(870.338 313.322)">
<stop stop-color="#C2C2C2"/>
<stop offset="1" stop-color="white"/>
</radialGradient>
<radialGradient id="paint24_radial_171_106" cx="0" cy="0" r="1" gradientUnits="userSpaceOnUse" gradientTransform="translate(698.645 141.456) scale(756.757 272.433)">
<stop stop-color="#C2C2C2"/>
<stop offset="1" stop-color="white"/>
</radialGradient>
<radialGradient id="paint25_radial_171_106" cx="0" cy="0" r="1" gradientUnits="userSpaceOnUse" gradientTransform="translate(694.949 137.169) scale(807.692 290.769)">
<stop stop-color="#C2C2C2"/>
<stop offset="1" stop-color="white"/>
</radialGradient>
<radialGradient id="paint26_radial_171_106" cx="0" cy="0" r="1" gradientUnits="userSpaceOnUse" gradientTransform="translate(613.754 145.366) scale(576.998 207.719)">
<stop stop-color="#C2C2C2"/>
<stop offset="1" stop-color="white"/>
</radialGradient>
<radialGradient id="paint27_radial_171_106" cx="0" cy="0" r="1" gradientUnits="userSpaceOnUse" gradientTransform="translate(491.178 136.933) scale(427.204 153.793)">
<stop stop-color="#C2C2C2"/>
<stop offset="1" stop-color="white"/>
</radialGradient>
<radialGradient id="paint28_radial_171_106" cx="0" cy="0" r="1" gradientUnits="userSpaceOnUse" gradientTransform="translate(527.947 140.833) scale(728.035 262.093)">
<stop stop-color="#C2C2C2"/>
<stop offset="1" stop-color="white"/>
</radialGradient>
<radialGradient id="paint29_radial_171_106" cx="0" cy="0" r="1" gradientUnits="userSpaceOnUse" gradientTransform="translate(596.383 134.59) scale(645.795 232.486)">
<stop stop-color="#C2C2C2"/>
<stop offset="1" stop-color="white"/>
</radialGradient>
<radialGradient id="paint30_radial_171_106" cx="0" cy="0" r="1" gradientUnits="userSpaceOnUse" gradientTransform="translate(-502.36 139.995) scale(1653.3 595.188)">
<stop stop-color="#C2C2C2"/>
<stop offset="1" stop-color="white"/>
</radialGradient>
<radialGradient id="paint31_radial_171_106" cx="0" cy="0" r="1" gradientUnits="userSpaceOnUse" gradientTransform="translate(-3957.08 143.729) scale(5783.32 2082)">
<stop stop-color="#C2C2C2"/>
<stop offset="1" stop-color="white"/>
</radialGradient>
<radialGradient id="paint32_radial_171_106" cx="0" cy="0" r="1" gradientUnits="userSpaceOnUse" gradientTransform="translate(526.377 130.915) scale(417.03 150.131)">
<stop stop-color="#C2C2C2"/>
<stop offset="1" stop-color="white"/>
</radialGradient>
<radialGradient id="paint33_radial_171_106" cx="0" cy="0" r="1" gradientUnits="userSpaceOnUse" gradientTransform="translate(536.158 135.581) scale(437.05 157.338)">
<stop stop-color="#C2C2C2"/>
<stop offset="1" stop-color="white"/>
</radialGradient>
<radialGradient id="paint34_radial_171_106" cx="0" cy="0" r="1" gradientUnits="userSpaceOnUse" gradientTransform="translate(522.746 123.921) scale(423.671 152.521)">
<stop stop-color="#C2C2C2"/>
<stop offset="1" stop-color="white"/>
</radialGradient>
<radialGradient id="paint35_radial_171_106" cx="0" cy="0" r="1" gradientUnits="userSpaceOnUse" gradientTransform="translate(657.656 100.426) scale(960.594 345.814)">
<stop stop-color="#C2C2C2"/>
<stop offset="1" stop-color="white"/>
</radialGradient>
<radialGradient id="paint36_radial_171_106" cx="0" cy="0" r="1" gradientUnits="userSpaceOnUse" gradientTransform="translate(548.753 123.496) scale(938.938 338.018)">
<stop stop-color="#C2C2C2"/>
<stop offset="1" stop-color="white"/>
</radialGradient>
<radialGradient id="paint37_radial_171_106" cx="0" cy="0" r="1" gradientUnits="userSpaceOnUse" gradientTransform="translate(524.611 146.731) scale(834.419 300.391)">
<stop stop-color="#C2C2C2"/>
<stop offset="1" stop-color="white"/>
</radialGradient>
<radialGradient id="paint38_radial_171_106" cx="0" cy="0" r="1" gradientUnits="userSpaceOnUse" gradientTransform="translate(547.445 139.359) scale(691.724 249.02)">
<stop stop-color="#C2C2C2"/>
<stop offset="1" stop-color="white"/>
</radialGradient>
<radialGradient id="paint39_radial_171_106" cx="0" cy="0" r="1" gradientUnits="userSpaceOnUse" gradientTransform="translate(526.508 142.74) scale(705.758 254.073)">
<stop stop-color="#C2C2C2"/>
<stop offset="1" stop-color="white"/>
</radialGradient>
<radialGradient id="paint40_radial_171_106" cx="0" cy="0" r="1" gradientUnits="userSpaceOnUse" gradientTransform="translate(523.106 141.28) scale(534.535 192.433)">
<stop stop-color="#C2C2C2"/>
<stop offset="1" stop-color="white"/>
</radialGradient>
<radialGradient id="paint41_radial_171_106" cx="0" cy="0" r="1" gradientUnits="userSpaceOnUse" gradientTransform="translate(570.703 143.823) scale(559.038 201.254)">
<stop stop-color="#C2C2C2"/>
<stop offset="1" stop-color="white"/>
</radialGradient>
<radialGradient id="paint42_radial_171_106" cx="0" cy="0" r="1" gradientUnits="userSpaceOnUse" gradientTransform="translate(409.525 113.72) scale(901.024 324.368)">
<stop stop-color="#C2C2C2"/>
<stop offset="1" stop-color="white"/>
</radialGradient>
<linearGradient id="paint43_linear_171_106" x1="653.5" y1="90" x2="712" y2="96.5" gradientUnits="userSpaceOnUse">
<stop stop-color="#316FF6"/>
<stop offset="1" stop-color="white" stop-opacity="0"/>
</linearGradient>
<linearGradient id="paint44_linear_171_106" x1="785.5" y1="223" x2="836" y2="261" gradientUnits="userSpaceOnUse">
<stop stop-color="#316FF6"/>
<stop offset="1" stop-color="#316FF6" stop-opacity="0.12"/>
</linearGradient>
<linearGradient id="paint45_linear_171_106" x1="837" y1="62.5" x2="894.5" y2="88" gradientUnits="userSpaceOnUse">
<stop stop-color="#316FF6"/>
<stop offset="1" stop-color="#316FF6" stop-opacity="0"/>
</linearGradient>
<clipPath id="clip0_171_106">
<rect width="55" height="55" fill="white" transform="translate(626 90)"/>
</clipPath>
<clipPath id="clip1_171_106">
<rect width="55" height="55" fill="white" transform="translate(758 223)"/>
</clipPath>
<clipPath id="clip2_171_106">
<rect width="55" height="55" fill="white" transform="translate(830 47)"/>
</clipPath>
</defs>
</svg>
